<?xml version="1.0" standalone="no"?>
<!DOCTYPE svg PUBLIC "-//W3C//DTD SVG 20010904//EN"
 "http://www.w3.org/TR/2001/REC-SVG-20010904/DTD/svg10.dtd">
<svg version="1.0" xmlns="http://www.w3.org/2000/svg"
 width="1674.000000pt" height="1931.000000pt" viewBox="0 0 1674.000000 1931.000000"
 preserveAspectRatio="xMidYMid meet">
<metadata>
Created by potrace 1.16, written by Peter Selinger 2001-2019
</metadata>
<g transform="translate(0.000000,1931.000000) scale(0.100000,-0.100000)"
fill="#000000" stroke="none">
<path d="M11900 19066 c-96 -166 -272 -362 -408 -455 -92 -62 -234 -127 -342
-156 -169 -46 -192 -68 -150 -143 16 -28 20 -51 18 -92 l-3 -54 -60 -19 c-249
-77 -810 -200 -1145 -251 -1197 -184 -2474 -162 -3450 60 -194 44 -292 71
-497 136 l-163 52 0 47 c0 36 8 60 35 105 19 32 35 63 35 69 0 28 -52 58 -145
81 -324 82 -585 291 -782 625 -29 50 -32 52 -36 29 -77 -384 -173 -533 -386
-601 -88 -29 -372 -37 -536 -16 -60 8 -111 13 -113 12 -7 -6 129 -167 207
-243 106 -105 216 -193 348 -280 l103 -67 0 -52 c0 -51 -1 -53 -45 -83 -25
-17 -43 -34 -41 -38 2 -4 63 -36 135 -72 l131 -64 0 -52 0 -51 -92 -11 c-314
-38 -806 -42 -1053 -7 -554 76 -982 273 -1337 614 -133 127 -227 246 -438 554
l-175 256 -3 -3472 -2 -3472 -113 -58 c-61 -31 -148 -81 -192 -110 -68 -44
-80 -56 -77 -77 1 -14 5 -53 9 -87 l5 -62 -43 -11 c-147 -37 -309 -104 -684
-284 -138 -66 -183 -93 -194 -114 -11 -19 -17 -72 -21 -182 l-5 -155 -46 -57
c-45 -54 -89 -148 -89 -188 0 -16 -7 -20 -30 -20 l-30 0 0 -70 0 -70 29 0 c26
0 29 -4 35 -42 15 -99 48 -193 77 -219 34 -30 36 -61 13 -189 -22 -126 -5
-240 57 -362 33 -65 38 -125 14 -181 -11 -27 -12 -43 -5 -62 6 -15 10 -49 10
-77 0 -48 -3 -54 -55 -109 -59 -62 -104 -145 -112 -210 -5 -35 -8 -39 -34 -39
-19 0 -29 -5 -29 -15 0 -10 10 -15 29 -15 27 0 29 -3 35 -49 18 -133 150 -307
310 -406 74 -46 225 -114 253 -115 9 0 11 15 7 59 -4 33 -4 71 0 85 6 24 10
26 67 26 45 0 80 -8 137 -31 43 -18 104 -42 137 -54 58 -22 60 -24 63 -61 2
-22 -1 -76 -8 -121 -14 -95 -4 -178 37 -303 42 -132 138 -307 225 -413 l23
-28 -3 80 -4 81 54 0 55 0 12 -42 c7 -24 30 -79 50 -123 38 -80 38 -82 45
-250 39 -917 234 -1811 556 -2550 477 -1093 1245 -1973 2388 -2734 680 -453
1464 -859 2695 -1395 237 -103 776 -321 1104 -446 l112 -43 88 33 c729 271
1787 731 2487 1082 1996 1000 3133 2084 3763 3588 307 735 472 1523 523 2498
9 177 10 186 47 282 l38 100 54 0 54 0 -6 -82 -5 -82 19 24 c137 172 242 399
269 581 9 63 8 88 -4 143 -9 37 -16 86 -16 109 l0 43 145 57 c127 51 153 58
203 55 l57 -3 3 -82 c2 -49 7 -83 13 -83 6 0 44 13 86 30 232 93 400 252 462
437 48 142 4 291 -119 408 -31 30 -31 31 -30 125 0 52 -2 123 -5 157 -6 56 -4
68 24 125 58 120 80 282 51 378 -5 19 -10 59 -10 90 0 46 4 57 25 75 27 21 69
142 81 236 6 46 9 49 35 49 28 0 29 1 29 55 0 54 -1 55 -29 55 -25 0 -29 4
-35 38 -9 55 -51 138 -99 195 l-42 51 0 140 c0 216 24 188 -298 343 -258 124
-451 203 -581 239 l-58 16 4 67 c3 36 8 74 12 83 6 14 -10 29 -82 76 -50 32
-133 80 -186 107 l-96 50 0 3479 0 3479 -181 -264 c-216 -315 -293 -411 -436
-550 -353 -340 -779 -536 -1343 -615 -100 -15 -196 -18 -475 -19 -346 0 -425
5 -670 41 -143 22 -135 17 -135 77 l0 52 103 39 c56 21 148 59 204 83 l103 45
-20 28 c-13 19 -20 44 -20 77 0 45 3 50 38 72 85 54 223 164 311 247 85 80
256 273 248 280 -2 2 -28 -1 -58 -6 -29 -6 -142 -13 -249 -17 -217 -6 -317 6
-415 52 -149 71 -245 228 -298 487 l-23 114 -34 -60z m-9659 -1671 c500 -315
1155 -482 1809 -462 464 15 990 110 1477 267 50 17 107 30 126 30 19 0 117
-18 219 -40 739 -159 1511 -229 2408 -217 938 12 1614 85 2345 254 111 25 237
48 282 50 78 5 89 3 250 -51 786 -260 1528 -350 2153 -260 454 65 895 223
1226 439 77 50 90 55 139 55 l55 0 0 -2500 0 -2500 -55 0 c-54 0 -55 0 -76 43
-37 73 -106 163 -171 222 l-63 57 -5 -72 c-7 -99 -21 -110 -142 -110 -128 0
-142 8 -388 244 -255 243 -427 356 -667 435 -158 53 -308 76 -438 67 -163 -11
-189 -21 -70 -29 311 -20 606 -176 910 -485 l105 -106 0 -53 0 -53 -54 0 c-44
0 -66 7 -113 34 -110 64 -251 113 -398 136 -89 15 -278 13 -375 -3 l-75 -12
85 -13 c323 -50 633 -186 800 -354 60 -59 60 -60 60 -119 l0 -59 -49 0 c-29 0
-70 9 -102 24 -204 90 -541 162 -815 173 -474 19 -971 -142 -1312 -426 -79
-66 -194 -173 -189 -177 1 -2 52 13 112 32 196 62 329 85 530 91 265 8 411
-21 546 -110 l64 -42 3 -55 3 -55 -103 -40 c-57 -21 -141 -55 -189 -75 l-85
-35 245 0 c261 0 361 -12 460 -56 97 -43 161 -119 201 -238 24 -72 45 -281 35
-348 l-6 -43 -53 0 -53 0 -36 54 c-55 83 -152 181 -230 233 -84 56 -230 113
-291 115 -47 1 -86 -15 -86 -36 0 -18 51 -56 120 -91 30 -15 82 -46 115 -70
33 -23 84 -54 113 -70 l52 -28 0 -59 0 -58 -128 0 c-122 0 -359 22 -397 36
-33 13 -7 -14 41 -42 43 -25 44 -27 44 -78 l0 -51 -82 -19 c-163 -36 -300
-120 -366 -223 -29 -46 -67 -142 -59 -149 2 -3 31 8 63 23 57 27 65 28 219 28
135 0 173 -4 243 -23 149 -40 343 -123 622 -264 151 -77 307 -153 345 -169
104 -45 216 -69 323 -69 l92 0 0 -60 0 -59 -67 -54 c-223 -178 -481 -295 -783
-357 -129 -26 -353 -44 -479 -37 -104 5 -105 5 -80 -14 13 -10 63 -40 110 -67
303 -174 663 -271 1002 -272 l137 0 0 -54 0 -53 -54 -36 c-147 -98 -400 -196
-606 -235 -189 -37 -301 -45 -529 -39 -234 6 -371 27 -516 80 -38 15 -71 25
-72 23 -2 -2 41 -46 95 -97 286 -272 643 -436 990 -456 l102 -6 0 -53 0 -53
-64 -30 c-110 -53 -178 -63 -386 -59 -102 3 -194 9 -205 13 -69 30 132 -133
219 -177 138 -70 218 -83 295 -48 26 12 65 20 97 20 l54 0 0 -55 c0 -80 -63
-193 -166 -299 -54 -56 -32 -48 66 24 140 104 304 302 381 463 l23 47 54 0 55
0 -6 -187 c-10 -377 -91 -605 -259 -728 -89 -66 -158 -86 -320 -92 -157 -6
-280 10 -430 57 -51 16 -94 28 -95 26 -2 -1 25 -49 59 -107 104 -177 250 -299
465 -386 117 -48 260 -77 343 -69 151 13 321 78 475 181 201 133 441 412 555
644 l35 71 60 -3 60 -2 8 -60 c11 -75 -5 -275 -33 -409 -11 -55 -18 -101 -15
-104 6 -6 87 68 144 133 54 60 124 167 157 240 l25 55 53 0 c48 0 54 -3 65
-27 18 -39 25 -149 13 -210 l-9 -53 48 0 49 0 0 -84 c0 -157 -68 -599 -142
-916 -232 -1002 -674 -1821 -1367 -2533 -416 -426 -901 -800 -1526 -1175 -699
-419 -1814 -950 -2863 -1363 -281 -111 -363 -139 -401 -139 -38 0 -107 23
-312 104 -522 205 -867 352 -1414 603 -1104 508 -1875 957 -2495 1454 -1045
838 -1669 1836 -1954 3124 -63 286 -126 708 -126 845 l0 70 39 0 39 0 -9 38
c-14 61 -11 178 7 222 16 39 17 40 68 40 l51 0 47 -93 c55 -107 151 -232 231
-300 31 -27 57 -47 57 -44 0 2 -9 46 -20 98 -27 132 -40 249 -39 349 2 130 4
134 71 138 l56 3 42 -77 c101 -188 216 -340 367 -485 224 -214 473 -333 698
-332 232 0 555 157 694 336 38 50 131 204 131 218 0 3 -51 -9 -114 -27 -152
-44 -264 -58 -416 -51 -91 3 -141 11 -184 26 -173 62 -281 196 -340 421 -33
124 -44 211 -52 408 l-7 162 54 0 54 0 30 -58 c104 -201 307 -427 463 -516 7
-4 -19 31 -57 79 -89 111 -131 195 -131 264 l0 51 49 0 c31 0 68 -9 103 -25
29 -14 71 -25 93 -25 52 1 153 36 235 82 59 33 216 156 208 163 -2 2 -23 -1
-48 -5 -25 -5 -117 -9 -206 -10 -177 0 -267 16 -363 65 l-51 25 0 55 0 55 63
0 c86 0 235 24 342 55 241 70 487 216 692 409 51 49 92 90 91 91 -2 2 -43 -10
-92 -27 -159 -53 -261 -69 -493 -75 -133 -4 -253 -1 -325 6 -296 31 -603 131
-805 260 l-63 40 0 56 0 55 136 0 c287 0 594 72 874 206 93 44 260 139 260
147 0 1 -91 3 -203 3 -219 2 -349 19 -529 69 -244 69 -497 200 -655 340 -51
45 -53 48 -53 100 l0 53 123 4 c169 7 227 28 617 222 326 162 466 223 628 273
79 24 102 27 257 27 165 1 172 0 229 -26 32 -16 60 -28 61 -28 2 0 -1 17 -7
38 -45 164 -189 283 -405 335 l-93 22 0 51 c0 51 0 51 51 83 28 17 50 33 48
35 -2 2 -40 -3 -84 -10 -44 -8 -167 -17 -272 -20 l-193 -7 0 57 0 57 46 27
c25 15 75 46 110 69 35 23 90 56 123 73 69 35 134 87 125 102 -4 6 -21 16 -39
24 -44 18 -130 -3 -253 -63 -110 -54 -217 -148 -302 -267 l-54 -76 -55 0 -54
0 6 143 c6 161 18 226 57 314 56 124 140 184 310 220 69 14 132 18 327 18 134
0 243 1 243 2 0 1 -83 34 -185 74 l-185 73 0 53 c0 51 2 54 43 84 55 41 145
82 232 105 59 16 106 19 290 19 200 -1 231 -3 345 -28 69 -14 173 -42 232 -60
126 -40 127 -36 5 73 -284 255 -587 402 -977 471 -358 64 -817 14 -1174 -128
-52 -20 -116 -38 -148 -40 l-58 -5 0 62 0 62 59 58 c159 159 467 297 776 348
l110 18 -91 13 c-285 39 -601 -23 -799 -158 -21 -15 -46 -21 -82 -21 l-53 0 0
55 0 54 118 119 c302 305 587 456 902 480 l105 8 -104 13 c-318 41 -696 -85
-993 -331 -35 -29 -128 -115 -207 -190 -80 -76 -169 -155 -199 -176 -51 -34
-60 -37 -138 -41 -145 -6 -164 7 -164 110 l0 70 -22 -15 c-50 -34 -137 -130
-179 -196 l-44 -69 -52 -1 -53 0 0 2480 0 2480 54 0 c49 0 63 -6 157 -65z
m-151 -5557 c0 -35 -7 -64 -20 -86 -11 -18 -20 -34 -20 -36 0 -1 33 3 73 11
256 49 546 59 696 23 90 -22 188 -66 287 -131 l63 -41 67 52 c82 63 179 113
276 141 60 18 108 23 261 26 103 3 208 2 232 -2 l45 -6 0 -53 0 -52 -67 -17
c-100 -26 -258 -107 -335 -171 -36 -31 -88 -84 -113 -119 -96 -127 -138 -243
-155 -427 -6 -67 -20 -150 -30 -183 -35 -112 -115 -214 -230 -295 -85 -59 -89
-63 -54 -52 16 5 108 34 204 65 312 100 447 125 680 125 207 -1 331 -23 495
-89 l90 -37 3 -55 3 -56 -148 -6 c-262 -11 -510 -67 -738 -166 -60 -27 -168
-74 -240 -106 -282 -124 -398 -150 -677 -150 -203 0 -206 0 -196 -20 6 -11 63
-72 127 -135 138 -135 155 -158 170 -228 29 -137 22 -470 -13 -655 -15 -80
-45 -118 -115 -143 -65 -23 -340 -31 -514 -13 -73 7 -154 13 -181 14 l-50 0
-13 -50 c-28 -103 -14 -147 149 -450 138 -259 203 -396 223 -470 17 -66 20
-200 5 -239 -9 -24 -15 -26 -65 -26 -46 0 -55 3 -55 18 0 90 -91 233 -249 392
-111 112 -115 114 -122 88 -41 -155 6 -402 127 -657 42 -89 54 -124 54 -162
l0 -49 -52 0 c-49 0 -55 3 -84 38 -63 76 -163 230 -207 317 -76 153 -99 239
-105 398 -5 148 6 231 40 304 l20 43 -39 62 c-43 68 -73 138 -73 167 0 16 -13
19 -132 24 -234 10 -504 86 -835 234 l-103 46 0 53 0 54 283 -2 c155 -2 299 1
320 5 32 7 37 12 37 35 0 24 10 32 76 66 144 74 288 235 359 404 60 142 77
229 82 420 l6 172 52 0 c52 0 53 -1 68 -38 28 -69 39 -126 47 -227 l7 -100 2
121 c2 233 -54 425 -137 464 -78 37 -146 30 -343 -34 l-104 -34 68 -1 67 -1 0
-58 c0 -62 6 -50 -110 -235 l-35 -56 -64 -1 c-55 0 -66 -3 -83 -25 -16 -21
-28 -25 -73 -25 l-54 0 -20 -67 c-11 -38 -25 -89 -32 -115 l-11 -48 -58 0 -57
0 -37 71 c-20 39 -39 88 -42 108 l-6 36 -54 -3 c-31 -2 -61 1 -68 7 -11 9 -16
4 -23 -26 l-9 -38 -60 -3 c-61 -3 -61 -3 -77 30 -9 19 -21 54 -26 78 -14 60
-14 233 0 303 l12 57 55 0 c47 0 59 -4 90 -31 75 -66 176 -91 286 -70 81 15
298 73 292 78 -2 2 -41 -3 -86 -11 -110 -21 -314 -20 -400 2 l-65 17 1 100 c2
121 22 204 75 306 44 85 109 157 166 185 46 22 180 31 232 15 38 -11 68 -34
95 -73 l16 -22 23 23 c14 12 37 44 51 72 l27 49 -25 10 c-14 5 -87 21 -163 35
-325 61 -410 88 -486 155 -36 32 -38 35 -35 89 l3 56 69 47 c190 130 417 219
714 277 l132 27 -25 34 c-20 27 -25 46 -25 91 0 52 3 59 34 87 19 16 58 41 87
55 137 64 435 145 542 146 l57 1 0 -52z m12773 27 c212 -48 405 -121 476 -180
28 -24 31 -32 31 -86 0 -51 -4 -63 -31 -94 -28 -32 -29 -35 -11 -35 12 0 77
-11 147 -26 255 -51 502 -147 678 -264 l77 -51 0 -64 c0 -59 -2 -65 -31 -90
-70 -58 -170 -92 -387 -130 -139 -25 -258 -51 -274 -61 -11 -7 36 -95 66 -123
14 -14 27 -23 29 -20 2 2 13 18 25 36 33 48 93 67 194 61 102 -6 147 -27 212
-99 95 -106 148 -260 144 -417 l-3 -97 -40 -14 c-24 -8 -97 -16 -180 -19 -131
-4 -189 2 -345 33 -48 9 66 -26 179 -55 215 -57 303 -50 410 31 48 36 57 40
104 37 l52 -3 13 -60 c8 -37 11 -106 9 -181 -3 -104 -7 -129 -28 -170 l-24
-49 -60 0 -59 0 -11 38 c-8 27 -14 34 -21 27 -6 -6 -35 -10 -65 -8 l-54 3 -22
-68 c-13 -37 -34 -85 -48 -107 -24 -39 -27 -40 -80 -40 l-54 0 -11 43 c-6 23
-20 75 -32 115 l-21 72 -52 0 c-42 0 -56 5 -75 25 -20 21 -32 25 -86 25 -59 0
-63 1 -82 33 -10 17 -45 72 -76 121 -50 80 -56 95 -56 143 l0 53 73 1 72 1
-90 30 c-133 43 -257 68 -299 58 -87 -19 -137 -82 -171 -214 -23 -91 -36 -262
-26 -336 l8 -65 2 81 c1 95 15 178 43 251 l19 53 55 0 54 0 0 -149 c0 -91 6
-180 15 -228 54 -287 213 -518 432 -630 63 -33 73 -42 73 -65 0 -19 7 -29 23
-35 12 -4 156 -7 320 -6 l297 3 0 -54 0 -54 -107 -47 c-333 -147 -601 -222
-829 -232 l-131 -6 -12 -46 c-11 -40 -57 -132 -93 -182 -9 -13 -7 -27 9 -65
36 -83 46 -164 40 -302 -10 -230 -79 -397 -266 -649 l-76 -103 -52 0 -53 0 0
54 c0 46 8 72 49 153 57 114 103 245 126 358 17 83 21 235 7 295 l-8 35 -88
-85 c-167 -160 -276 -323 -276 -412 l0 -38 -53 0 c-48 0 -55 3 -65 25 -16 35
-15 188 2 250 23 85 72 191 212 450 73 138 144 280 156 315 19 58 20 69 9 124
-20 97 -15 94 -123 79 -142 -20 -504 -28 -580 -13 -77 14 -135 46 -154 82 -33
63 -48 207 -49 453 0 327 -1 324 150 470 102 99 165 169 165 184 0 3 -93 6
-208 6 -302 0 -401 26 -816 215 -314 142 -597 210 -883 210 l-93 0 0 56 0 55
57 25 c165 73 322 104 533 104 266 0 403 -30 900 -198 8 -2 -17 18 -56 46 -97
70 -180 162 -220 245 -32 68 -43 116 -63 298 -19 172 -82 309 -200 433 -107
112 -255 196 -414 237 l-47 11 0 54 0 53 45 6 c82 13 414 -1 480 -20 89 -25
211 -86 287 -145 l67 -52 90 57 c183 116 284 140 569 132 178 -4 353 -25 446
-54 18 -5 18 -3 -2 30 -16 24 -22 50 -22 91 l0 56 51 0 c27 0 101 -11 162 -25z
m-14346 -1091 c31 -23 33 -29 33 -82 0 -56 -24 -153 -76 -314 l-26 -78 -58 0
-58 0 -18 43 c-13 32 -19 78 -22 190 -5 166 0 204 29 241 19 24 27 26 91 26
61 0 76 -4 105 -26z m15907 -14 c42 -71 31 -391 -15 -447 -7 -8 -33 -13 -65
-13 -64 0 -55 -14 -115 189 -27 93 -39 153 -39 197 0 57 2 64 31 89 29 24 38
26 107 23 75 -3 76 -3 96 -38z m-15576 -1405 l27 -45 61 0 61 0 87 -81 86 -81
0 -58 0 -58 -42 -12 c-24 -6 -117 -14 -208 -17 -186 -6 -351 11 -484 49 -72
21 -81 26 -88 53 -11 36 -3 195 12 248 l11 37 60 0 59 0 22 -45 c21 -44 23
-45 69 -45 26 0 54 -3 63 -6 11 -4 23 9 43 50 l27 56 53 0 c53 0 54 -1 81 -45z
m15204 -7 l25 -53 65 3 64 4 23 49 22 50 57 -3 c56 -3 56 -3 68 -43 7 -22 13
-93 13 -158 l1 -117 -27 -11 c-16 -6 -82 -23 -148 -37 -107 -23 -144 -26 -330
-26 -146 -1 -226 3 -262 12 l-53 14 0 58 0 57 85 82 85 81 59 0 c60 0 60 0 91
45 30 44 33 45 83 45 l53 0 26 -52z m-12714 -629 c110 -103 262 -191 452 -262
90 -33 296 -88 388 -102 l42 -7 0 -52 0 -53 -67 -6 c-101 -10 -367 -8 -452 3
-252 33 -419 127 -493 277 -28 58 -33 79 -36 165 l-4 98 52 0 c50 0 55 -2 118
-61z m10230 -36 c-4 -78 -10 -109 -31 -153 -69 -144 -202 -232 -427 -280 -71
-16 -379 -25 -503 -15 l-97 7 0 53 0 53 48 6 c91 13 298 68 399 106 193 73
374 182 472 284 32 33 40 36 89 36 l55 0 -5 -97z m-10738 -64 c166 -78 318
-258 413 -489 42 -102 62 -189 77 -330 25 -243 33 -299 56 -371 28 -89 82
-175 153 -244 49 -47 51 -52 51 -102 l0 -53 -47 0 -48 0 40 -35 c112 -96 296
-195 430 -231 77 -21 204 -24 363 -10 l92 9 0 -56 0 -56 -59 -36 c-91 -54
-237 -121 -321 -145 -56 -17 -112 -23 -226 -27 -131 -5 -161 -3 -233 16 -285
72 -507 345 -665 821 -81 245 -166 621 -166 736 l0 44 54 0 53 0 43 -107 c23
-60 62 -146 86 -193 l43 -85 0 65 c2 198 -53 410 -147 573 -41 70 -135 173
-191 207 -39 24 -40 27 -41 79 l0 53 68 -4 c44 -2 86 -12 122 -29z m11260 -23
c0 -51 -2 -55 -40 -81 -141 -98 -253 -286 -301 -508 -16 -73 -42 -335 -34
-345 4 -5 102 212 136 300 l34 88 53 0 52 0 0 -65 c0 -137 -111 -600 -196
-818 -148 -377 -345 -613 -584 -699 -59 -21 -82 -23 -240 -23 -153 0 -185 3
-254 23 -108 31 -202 72 -307 135 l-89 52 0 54 0 54 83 -7 c45 -3 119 -9 165
-12 202 -16 452 84 662 265 l35 30 -47 1 -48 0 0 51 c0 49 3 54 61 117 112
119 156 244 179 507 22 249 55 375 141 533 92 173 208 294 343 362 65 33 88
40 137 40 l59 0 0 -54z"/>
<path d="M8200 15595 l0 -555 -55 0 c-30 0 -55 4 -55 8 0 11 -250 1085 -253
1087 -1 1 -139 -6 -307 -16 -168 -10 -313 -18 -323 -18 -18 -1 -18 -48 -15
-1280 2 -704 6 -1282 9 -1286 4 -3 128 -3 278 1 l271 7 0 549 0 548 53 0 53 0
131 -547 130 -548 315 -3 315 -2 7 1294 c4 713 5 1300 1 1306 -4 6 -102 10
-281 10 l-274 0 0 -555z"/>
<path d="M9662 16120 c-158 -42 -302 -149 -381 -284 -77 -129 -137 -350 -161
-591 -29 -292 -21 -846 15 -1087 36 -242 103 -407 208 -511 75 -74 139 -111
243 -137 172 -44 372 -6 491 94 24 20 42 26 81 26 l51 0 3 -47 3 -48 201 -3
201 -2 5 677 c3 373 4 680 1 682 -2 3 -142 13 -311 22 -169 10 -337 20 -375
23 l-67 5 2 -237 3 -237 98 -3 99 -3 -7 -122 c-7 -135 -29 -287 -46 -320 -27
-52 -38 -57 -126 -57 -76 0 -86 2 -107 25 -49 53 -63 165 -71 595 -7 336 7
833 26 940 13 74 40 135 64 144 9 3 50 6 91 6 65 0 78 -3 99 -24 35 -35 46
-86 52 -243 l6 -141 41 -6 c84 -11 526 -40 531 -34 10 10 -15 219 -36 306 -43
173 -109 295 -218 402 -83 81 -169 132 -291 172 -127 41 -305 49 -418 18z"/>
<path d="M6510 16048 c-151 -17 -276 -31 -277 -32 -1 0 1 -560 4 -1244 l6
-1242 294 0 293 0 0 1275 0 1275 -22 -1 c-13 -1 -147 -15 -298 -31z"/>
<path d="M5683 15956 l-272 -41 -153 -352 -153 -353 -52 0 -53 0 -2 313 -3
314 -266 -57 c-146 -31 -278 -60 -292 -64 l-27 -6 0 -1097 0 -1096 77 7 c42 3
174 6 295 6 l218 0 0 324 c0 312 1 326 21 360 20 34 24 36 74 36 l52 0 149
-360 149 -360 318 0 c174 0 317 4 317 9 0 4 -14 39 -31 77 -128 282 -318 693
-428 926 -123 260 -131 281 -131 337 0 58 8 78 255 587 140 289 255 528 255
530 0 7 -44 2 -317 -40z"/>
<path d="M11363 15926 c-135 -33 -268 -135 -330 -254 -109 -207 -124 -480 -39
-706 36 -94 71 -151 145 -229 86 -91 152 -136 355 -246 260 -141 296 -174 317
-286 14 -77 3 -192 -22 -234 -26 -43 -59 -53 -157 -49 -77 3 -86 5 -107 31
-34 38 -45 88 -45 199 0 93 -1 98 -22 102 -20 4 -478 26 -535 26 -21 0 -23 -5
-23 -47 0 -149 36 -316 91 -425 113 -223 406 -348 744 -317 229 22 383 85 505
208 118 119 168 239 177 431 6 131 -18 246 -77 359 -90 173 -202 270 -508 441
-182 101 -259 162 -295 230 -27 53 -28 60 -25 168 3 110 4 114 31 138 24 21
38 24 102 24 64 0 77 -3 104 -25 40 -35 60 -92 68 -205 l8 -95 270 -41 c149
-23 271 -41 273 -39 8 7 -23 210 -44 282 -42 147 -114 260 -221 348 -193 159
-543 258 -740 211z"/>
<path d="M4955 12563 c85 -21 237 -77 385 -143 157 -69 261 -108 328 -123 31
-7 137 17 197 44 l50 23 -150 7 c-171 8 -263 29 -465 104 -135 51 -297 96
-339 94 -21 -1 -22 -2 -6 -6z"/>
<path d="M11655 12545 c-49 -12 -135 -40 -190 -60 -245 -91 -355 -115 -534
-116 l-116 -1 52 -24 c28 -14 82 -31 118 -39 97 -20 119 -13 494 149 85 37
193 78 240 91 52 14 74 24 56 24 -16 0 -70 -11 -120 -24z"/>
<path d="M6930 11390 c0 -5 106 -365 235 -801 176 -592 235 -804 235 -843 0
-40 -76 -301 -325 -1118 -179 -587 -325 -1069 -325 -1072 0 -3 159 -6 353 -6
l352 0 164 563 c91 309 173 590 183 625 l19 62 52 0 52 0 194 -625 195 -625
403 0 c222 0 403 2 403 5 0 3 -144 455 -320 1004 -280 876 -320 1007 -320
1062 0 55 34 169 275 914 151 468 275 854 275 858 0 4 -147 6 -326 5 l-327 -3
-166 -558 -166 -558 -54 3 -54 3 -150 558 -150 557 -354 0 c-220 0 -353 -4
-353 -10z"/>
<path d="M9340 9475 l0 -1925 390 0 390 0 0 1925 0 1925 -390 0 -390 0 0
-1925z"/>
<path d="M4600 9624 c-125 -15 -439 -44 -482 -44 -51 -1 -52 -1 -28 -15 14 -8
61 -27 105 -42 76 -26 88 -27 225 -23 302 9 542 3 624 -13 44 -9 81 -15 83
-13 7 7 -70 58 -130 87 -98 46 -288 76 -397 63z"/>
<path d="M11952 9620 c-123 -17 -259 -71 -335 -133 l-28 -23 88 18 c125 26
342 34 536 18 189 -15 253 -8 381 43 l81 32 -50 3 c-27 1 -138 11 -245 22
-263 26 -353 30 -428 20z"/>
<path d="M4011 5499 c-340 -512 -600 -914 -595 -918 5 -5 105 -79 222 -165
l212 -156 217 325 216 325 49 0 c45 0 57 -6 146 -70 174 -127 353 -198 467
-187 205 21 414 195 549 460 52 102 88 229 88 308 0 145 -104 345 -237 454
-61 49 -718 535 -725 535 -3 0 -277 -410 -609 -911z m936 175 c50 -38 63 -71
63 -166 0 -93 -16 -137 -76 -219 -53 -73 -86 -89 -181 -89 -71 0 -84 3 -126
30 -46 29 -47 31 -47 80 0 47 7 60 113 220 l112 169 54 1 c43 0 61 -5 88 -26z"/>
<path d="M12071 6294 c-74 -20 -176 -75 -252 -136 -147 -119 -689 -620 -682
-631 4 -7 183 -228 398 -492 215 -264 518 -636 673 -827 155 -191 286 -350
292 -353 9 -6 623 542 698 623 96 105 162 221 193 340 17 67 18 86 9 142 -34
196 -191 431 -355 529 -102 61 -145 72 -267 65 l-108 -7 0 46 c0 25 5 67 11
94 15 64 0 137 -50 240 -84 174 -237 316 -389 363 -75 23 -98 24 -171 4z m38
-597 c77 -40 120 -122 121 -229 0 -60 -13 -95 -53 -135 -28 -30 -37 -33 -88
-33 l-57 0 -96 116 -96 117 0 56 c0 50 4 61 28 83 43 40 63 47 133 48 49 0 76
-6 108 -23z m593 -650 c50 -38 103 -112 118 -165 13 -48 13 -153 -1 -189 -5
-15 -29 -47 -52 -70 -39 -41 -44 -43 -97 -43 l-55 1 -122 152 -123 152 0 56
c0 54 2 58 45 98 l45 41 99 0 c97 0 101 -1 143 -33z"/>
<path d="M5839 5271 c-243 -648 -533 -1436 -549 -1492 -49 -174 -55 -297 -19
-408 39 -123 145 -256 266 -337 84 -55 220 -120 340 -161 97 -33 119 -37 213
-38 99 0 109 2 175 33 153 73 256 183 355 385 66 132 583 1507 572 1519 -10
10 -502 212 -506 207 -1 -2 -130 -346 -285 -764 -308 -828 -315 -844 -356
-893 l-28 -34 -83 4 c-65 2 -89 8 -111 24 -27 20 -28 26 -31 110 -2 49 2 109
8 134 6 25 138 384 292 798 154 414 279 755 277 757 -2 1 -118 50 -256 108
l-253 104 -21 -56z"/>
<path d="M10500 5118 c-168 -93 -304 -172 -304 -176 7 -43 519 -2209 524
-2214 4 -6 500 258 517 276 2 2 -16 68 -41 147 -30 94 -46 161 -46 195 l0 52
149 81 c129 70 155 81 197 81 l49 -1 88 -127 c49 -70 92 -134 97 -141 6 -11
60 15 231 109 123 67 238 131 256 142 l32 19 -706 847 c-388 466 -713 854
-722 863 -15 15 -41 2 -321 -153z m578 -900 c135 -191 142 -202 142 -248 l0
-48 -75 -41 c-58 -32 -85 -41 -123 -41 l-48 0 -72 234 c-53 172 -72 249 -72
290 l0 56 53 -1 52 0 143 -201z"/>
<path d="M9600 4711 c-235 -60 -265 -70 -263 -87 1 -10 84 -374 184 -809 172
-748 182 -797 186 -916 5 -119 4 -128 -16 -148 -18 -18 -33 -21 -99 -21 -65 0
-82 3 -96 19 -24 26 -51 101 -77 212 -12 52 -23 95 -24 97 -3 3 -460 -111
-492 -123 -20 -7 32 -179 93 -303 91 -188 218 -297 391 -338 116 -27 299 3
479 79 316 133 464 400 405 727 -12 62 -366 1626 -377 1663 -3 9 -11 17 -17
16 -7 0 -131 -31 -277 -68z"/>
<path d="M7375 4688 c-6 -21 -257 -2269 -254 -2272 6 -5 531 -68 534 -64 1 2
27 218 56 481 l54 477 55 0 55 0 74 -497 c40 -274 77 -502 81 -506 7 -8 612
-87 619 -81 5 4 262 2277 258 2280 -8 6 -528 66 -533 62 -3 -3 -29 -214 -57
-469 l-53 -464 -54 -3 -55 -3 -69 488 c-38 268 -72 492 -76 496 -5 6 -589 87
-628 87 -1 0 -4 -6 -7 -12z"/>
<path d="M2095 11171 c-80 -35 -125 -60 -125 -69 0 -4 23 -33 50 -64 50 -56
50 -56 88 -46 57 16 340 3 444 -20 48 -10 85 -16 83 -12 -3 4 -37 24 -77 43
-93 46 -226 84 -322 93 l-75 7 -3 47 -3 47 -60 -26z"/>
<path d="M14570 11151 l0 -48 -67 -6 c-93 -9 -214 -42 -298 -82 -116 -54 -123
-66 -24 -43 101 23 393 36 452 20 l37 -11 50 60 c28 33 50 62 50 65 0 6 -183
94 -194 94 -3 0 -6 -22 -6 -49z"/>
</g>
</svg>
