<?xml version="1.0" encoding="UTF-8" standalone="no"?>
<svg
   xmlns:dc="http://purl.org/dc/elements/1.1/"
   xmlns:cc="http://creativecommons.org/ns#"
   xmlns:rdf="http://www.w3.org/1999/02/22-rdf-syntax-ns#"
   xmlns:svg="http://www.w3.org/2000/svg"
   xmlns="http://www.w3.org/2000/svg"
   viewBox="0 0 1587.4 1122.52"
   height="1122.52"
   width="1587.4"
   xml:space="preserve"
   id="svg2"
   version="1.1"><metadata
     id="metadata8"><rdf:RDF><cc:Work
         rdf:about=""><dc:format>image/svg+xml</dc:format><dc:type
           rdf:resource="http://purl.org/dc/dcmitype/StillImage" /></cc:Work></rdf:RDF></metadata><defs
     id="defs6"><clipPath
       id="clipPath18"
       clipPathUnits="userSpaceOnUse"><path
         id="path16"
         d="M 0,841.89 H 1190.551 V 0 H 0 Z" /></clipPath><clipPath
       id="clipPath30"
       clipPathUnits="userSpaceOnUse"><path
         id="path28"
         d="m 321.735,510.47 c -3.235,6.478 -10.538,29.238 -66.452,32.639 v 0 c 14.024,-2.646 26.541,-8.991 28.76,-20.971 v 0 c -13.292,5.683 -37.105,14.707 -98.668,0.488 v 0 c 17.684,2.558 36.928,2.314 50.563,-4.457 v 0 c -24.543,0.24 -53.555,-2.1 -109.88,-31.717 v 0 c 18.307,7.801 40.68,14.078 62.651,14.194 v 0 C 162.921,493.442 129.316,481.04 91.076,439.577 v 0 c 14.755,12.627 35.662,25.406 61.732,33.545 v 0 c -15.537,-10.149 -51.72,-35.983 -55.212,-80.965 v 0 c 5.105,15.335 17.733,33.059 41.192,49.161 v 0 c -2.641,-5.106 -25.503,-46.191 19.58,-78.415 v 0 c -10.416,12.769 -14.047,30.49 -2.714,51.483 v 0 c 1.936,-7.912 14.037,-30.7 65.481,-39.701 v 0 l 0.906,3.974 h 8.797 c -18.801,7.453 -37.567,19.578 -36.946,29.489 v 0 c 27.496,-20.143 69.967,-10.601 69.967,-10.601 v 0 l 3.292,15.305 c -8.737,0.802 -15.592,2.027 -17.892,3.74 v 0 c 5.37,-0.45 11.708,-0.374 18.737,0.277 v 0 l 5.98,26.793 18.55,-23.36 26.16,20.984 -0.939,-5.305 17.486,-0.017 c 13.68,6.479 27.217,14.687 39.562,24.813 v 0 c 0.348,0.281 12.238,10.752 17.604,16.479 v 0 c -15.393,-11.714 -38.877,-23.073 -68.606,-28.24 v 0 l 0.746,2.063 c 16.014,8.54 54.325,36.606 51.862,71.438 v 0 c -3.264,-11.686 -14.951,-26.104 -40.047,-38.786 v 0 c 2.67,4.167 25.055,37.801 -12.504,60.514 v 0 c 7.235,-7.648 9.377,-19.207 -2.115,-33.775" /></clipPath><linearGradient
       id="linearGradient40"
       spreadMethod="pad"
       gradientTransform="matrix(301.32275,0,0,-301.32275,91.076172,453.57422)"
       gradientUnits="userSpaceOnUse"
       y2="0"
       x2="1"
       y1="0"
       x1="0"><stop
         id="stop36"
         offset="0"
         style="stop-opacity:1;stop-color:#0f2752" /><stop
         id="stop38"
         offset="1"
         style="stop-opacity:1;stop-color:#1a448c" /></linearGradient><clipPath
       id="clipPath50"
       clipPathUnits="userSpaceOnUse"><path
         id="path48"
         d="M 0,841.89 H 1190.551 V 0 H 0 Z" /></clipPath><clipPath
       id="clipPath66"
       clipPathUnits="userSpaceOnUse"><path
         id="path64"
         d="m 296.167,505.572 c 0.949,-3.88 -0.89,-10.454 -5.321,-18.083 v 0 c 7.834,20.894 -9.475,39.027 -56.797,37.791 v 0 c 12.492,-1.056 24.459,-5.01 29.074,-13.849 v 0 c 4.532,-2.082 8.805,-6.64 11.51,-12.657 v 0 c -11.625,15.123 -46.093,21.106 -95.569,5.606 v 0 c 14.775,3.324 31.486,4.593 44.882,0.496 v 0 c 6.712,0.12 15.465,-1.379 23.926,-4.252 v 0 c -26.415,5.76 -69.582,-1.507 -110.885,-28.754 v 0 c 14.009,7.5 31.975,14.154 51.126,16.07 v 0 c 7.251,2.322 18.177,4.272 29.987,5.241 v 0 c -34.413,-5.167 -76.622,-25.13 -98.012,-59.309 v 0 c 9.262,10.67 23.958,22.066 44.496,30.474 v 0 c 6.016,4.18 16.544,9.383 28.855,14.158 v 0 c -33.95,-15.646 -63.66,-45.321 -53.262,-77.433 v 0 c -0.094,11.203 5.664,25.001 21.351,38.835 v 0 c 2.72,5.102 9.598,12.544 18.836,20.246 v 0 c -23.308,-23.242 -27.58,-55.318 18.676,-72.066 v 0 c -11.822,7.332 -19.548,18.9 -15.687,34.521 v 0 c -2.134,4.445 -1.863,12.059 0.824,20.683 v 0 c -2.708,-22.863 21.823,-44.235 79.69,-39.954 v 0 l -3.892,-17.86 h 20.874 l 3.78,17.374 0.086,-0.112 4.057,-5.433 3.846,3.237 0.371,0.319 -3.36,-15.385 h 20.881 l 1.852,8.516 c 0.398,-0.634 0.828,-1.238 1.294,-1.82 v 0 c 3.934,-4.881 10.058,-7.567 17.247,-7.567 v 0 c 7.086,0 14.031,2.739 19.41,7.38 v 0 l -1.428,-6.509 h 20.883 l 3.781,17.379 0.086,-0.117 4.051,-5.433 3.849,3.237 0.372,0.314 -3.355,-15.38 h 14.495 l -11.814,-54.208 -10.01,48.647 h -37.535 l 9.66,-17.043 -20.308,-31.013 10.472,48.054 h -26.154 l -3.865,-17.705 c -0.995,2.196 -2.259,4.244 -3.756,6.105 v 0 c -4.258,5.297 -12.456,11.602 -27.354,11.602 v 0 h -50.955 l -6.024,-27.668 -32.119,38.198 -2.295,-10.532 h -19.565 l -17.128,-74.951 h 46.522 l 6.026,27.668 32.118,-38.198 2.3,10.53 h 27.983 c 13.353,0 26.193,5.783 35.112,15.326 v 0 l -3.332,-15.326 h 43.947 l 7.08,11.322 h 15.368 l 2.142,-11.322 h 42.098 l 6.031,27.668 30.543,-38.201 4.037,18.517 c 6.504,-5.91 15.344,-9.227 24.891,-9.227 v 0 c 16.15,0 34.443,8.903 38.148,25.927 v 0 c 1.403,6.456 0.568,11.926 -2.495,16.267 v 0 c -1.365,1.938 -3.087,3.555 -5.204,4.889 v 0 l 16.514,12.382 -4.512,5.889 c -6.145,8.019 -15.506,12.087 -27.811,12.087 v 0 c -10.152,0 -19.804,-3.429 -26.656,-9.15 v 0 l 1.721,7.905 h -26.169 l -6.022,-27.668 -26.575,33.229 h 27.019 c 1.003,0 1.993,0.063 2.966,0.183 v 0 l -0.122,-0.183 h 23.704 l 4.935,7.919 h 9.01 l 1.492,-7.919 h 32.039 l 11.97,54.927 h -20.874 l -6.637,-30.459 -6.266,30.459 h -29.431 l 7.434,-13.132 -9.309,-14.212 c -0.188,0.398 -0.395,0.787 -0.621,1.164 v 0 c 1.591,2.106 2.721,4.548 3.285,7.152 v 0 c 1.425,6.532 -0.645,10.847 -2.631,13.321 v 0 c -2.965,3.682 -7.688,5.707 -13.303,5.707 v 0 h -21.367 l 0.982,4.514 1.459,6.711 -32.016,-26.524 -18.941,24.559 -2.013,-9.26 h -14.801 l -6.17,-28.321 c -0.942,-4.303 -3.976,-7.312 -7.381,-7.312 v 0 c -0.886,0 -1.484,0.181 -1.785,0.555 v 0 c -0.432,0.538 -0.666,1.99 -0.217,4.039 v 0 l 6.756,31.039 h -14.791 l 2.449,11.219 -19.3,-15.98 c -6.45,-0.965 -13.073,-1.493 -19.731,-1.453 v 0 l -4.614,5.98 c 29.372,7.068 58.923,22.758 75.632,47.095 v 0 c -10.086,-9.928 -27.19,-20.325 -51.227,-26.228 v 0 c -7.475,-3.891 -20.237,-8.114 -34.825,-11.381 v 0 c 40.7,12.112 75.427,39.777 65.762,68.563 v 0 c -0.327,-8.678 -9.662,-24.781 -23.508,-30.754 v 0 c -3.509,-4.705 -11.804,-11.378 -22.931,-18.215 v 0 c 27.754,20.491 34.984,47.222 0.486,61.535 v 0 c 7.465,-5.263 11.602,-13.698 5.497,-25.212 m -24.716,-67.45 -0.408,-1.879 -0.322,-1.478 c -8.783,-0.992 -20.444,-0.564 -32.093,1.287 v 0 c 2.446,-0.156 4.953,-0.233 7.509,-0.233 v 0 c 8.063,0 16.617,0.771 25.314,2.303 M 225.629,420.19 c -6.832,2.008 -14.232,7.012 -19.973,13.637 v 0 C 217.93,424.184 240.312,419.038 267.937,422 v 0 l -3.679,-16.871 c -15.272,1.409 -29.562,5.935 -38.629,15.061 m 253.395,-64.263 c -0.842,0.105 -2.515,0.322 -4.156,0.582 v 0 c 1.078,0.33 2.496,0.561 4.308,0.561 v 0 c 2.969,0 4.981,-0.591 6.877,-2.194 v 0 c -2.387,0.443 -4.781,0.758 -7.029,1.051 m -217.323,-1.251 h 8.383 c 3.937,0 6.891,-1.083 8.533,-3.123 v 0 c 1.465,-1.814 1.902,-4.5 1.242,-7.55 v 0 c -1.747,-7.994 -9.447,-13.795 -18.308,-13.795 v 0 h -5.184 z m 186.678,-13.698 c 1.01,-1.386 2.174,-2.557 3.45,-3.557 v 0 l -0.446,-0.332 -1.924,-1.448 -2.681,-2.021 z m 12.094,-7.739 c 3.726,-1.078 7.702,-1.63 11.463,-2.148 v 0 c 1.008,-0.139 3.182,-0.437 5.086,-0.791 v 0 c -1.535,-0.731 -3.9,-1.309 -7.073,-1.344 v 0 c -3.779,0 -7.11,1.511 -9.476,4.283" /></clipPath><radialGradient
       id="radialGradient82"
       spreadMethod="pad"
       gradientTransform="matrix(126.873,0,0,-126.873,242.65723,452.26514)"
       gradientUnits="userSpaceOnUse"
       r="1"
       cy="0"
       cx="0"
       fy="0"
       fx="0"><stop
         id="stop72"
         offset="0"
         style="stop-opacity:1;stop-color:#fcd134" /><stop
         id="stop74"
         offset="0.313187"
         style="stop-opacity:1;stop-color:#fcd134" /><stop
         id="stop76"
         offset="0.32004047"
         style="stop-opacity:1;stop-color:#fcd134" /><stop
         id="stop78"
         offset="0.68132"
         style="stop-opacity:1;stop-color:#ed1639" /><stop
         id="stop80"
         offset="1"
         style="stop-opacity:1;stop-color:#ed1639" /></radialGradient><clipPath
       id="clipPath92"
       clipPathUnits="userSpaceOnUse"><path
         id="path90"
         d="M 0,841.89 H 1190.551 V 0 H 0 Z" /></clipPath><clipPath
       id="clipPath104"
       clipPathUnits="userSpaceOnUse"><path
         id="path102"
         d="m 381.675,309.94 h 15.982 l 7.402,33.95 30.539,-38.2 15.096,69.25 h -15.987 l -7.398,-33.951 -30.539,38.192 z m -210.846,0 h 15.983 l 7.398,33.95 32.119,-38.2 15.089,69.25 h -15.981 l -7.402,-33.951 -32.114,38.192 z m 279.755,46.24 c -1.066,-4.892 -0.503,-8.955 1.672,-12.071 v 0 c 4.078,-5.839 12.706,-7.034 20.309,-8.082 v 0 c 4.695,-0.653 10.006,-1.382 11.253,-3.163 v 0 c 0.112,-0.17 0.419,-0.599 0.179,-1.723 v 0 c -0.952,-4.328 -6.34,-7.072 -14.048,-7.155 v 0 c -5.788,0 -10.814,2.542 -14.157,7.175 v 0 l -1.416,1.951 -1.928,-1.447 -10.098,-7.578 -1.873,-1.408 1.391,-1.887 c 5.646,-7.694 14.863,-12.106 25.295,-12.106 v 0 c 14.156,0 30.142,7.565 33.291,22.02 v 0 c 1.095,5.035 0.526,9.182 -1.697,12.343 v 0 c -4.126,5.844 -12.753,6.957 -20.364,7.938 v 0 c -4.666,0.602 -9.939,1.284 -11.178,3.04 v 0 c -0.111,0.157 -0.416,0.587 -0.172,1.726 v 0 c 0.479,2.176 3.622,6.291 12.133,6.291 v 0 c 5.577,0 9.311,-1.828 12.899,-6.309 v 0 l 1.431,-1.788 1.84,1.37 9.862,7.399 1.913,1.431 -1.451,1.905 c -5.16,6.723 -13.193,10.136 -23.867,10.136 v 0 c -15.318,0 -28.734,-8.601 -31.219,-20.008 m -108.361,18.76 6.947,-12.262 -34.541,-52.738 h 17.588 l 7.079,11.32 h 22.249 l 2.141,-11.32 h 16.859 l -13.368,65 z m 14.281,-26.134 2.393,-12.824 h -10.428 z m -45.148,26.134 -14.164,-65 h 15.98 l 14.166,65 z m -66.311,0 -14.166,-65 h 28.367 c 19.529,0 37.253,13.752 41.225,31.992 v 0 c 1.945,8.903 0.304,17.164 -4.61,23.262 v 0 c -3.577,4.451 -10.558,9.746 -23.478,9.746 v 0 z m 12.647,-15.295 h 12.392 c 5.498,0 9.787,-1.719 12.41,-4.974 v 0 c 2.426,-3.01 3.211,-7.176 2.221,-11.731 v 0 c -2.24,-10.261 -11.981,-17.709 -23.164,-17.709 v 0 h -11.356 z m -92.26,15.295 -14.955,-65 h 16.765 l 14.168,65 z" /></clipPath><linearGradient
       id="linearGradient114"
       spreadMethod="pad"
       gradientTransform="matrix(0,73.490234,73.490234,0,328.79932,305.69043)"
       gradientUnits="userSpaceOnUse"
       y2="0"
       x2="1"
       y1="0"
       x1="0"><stop
         id="stop110"
         offset="0"
         style="stop-opacity:1;stop-color:#0f2752" /><stop
         id="stop112"
         offset="1"
         style="stop-opacity:1;stop-color:#1a448c" /></linearGradient><clipPath
       id="clipPath124"
       clipPathUnits="userSpaceOnUse"><path
         id="path122"
         d="M 0,841.89 H 1190.551 V 0 H 0 Z" /></clipPath><clipPath
       id="clipPath136"
       clipPathUnits="userSpaceOnUse"><path
         id="path134"
         d="m 381.069,418.329 -15.725,20.381 -10.572,-48.499 h 11.176 l 5.185,23.791 7.346,-9.839 11.029,9.325 -5.076,-23.277 h 11.178 l 10.68,49.007 z m -88.922,0 -15.723,20.381 -10.567,-48.499 h 11.174 l 5.182,23.791 7.348,-9.839 11.027,9.325 -5.072,-23.277 h 11.17 l 10.685,49.007 z m 201.913,17.34 -9.903,-45.458 h 11.17 l 9.906,45.458 z m -38.03,0 4.855,-8.578 -24.154,-36.88 h 12.304 l 4.947,7.918 h 15.56 l 1.496,-7.918 h 11.789 l -9.346,45.458 z m 9.988,-18.281 1.674,-8.964 h -7.295 z m -57.066,18.281 -9.913,-45.458 h 26.082 c 8.409,0 15.496,5.562 17.231,13.519 v 0 c 1,4.583 -0.267,8.384 -3.426,10.68 v 0 c 2.586,1.904 4.436,4.728 5.143,7.973 v 0 c 1.027,4.708 -0.357,7.677 -1.694,9.343 v 0 c -2.05,2.543 -5.463,3.943 -9.613,3.943 v 0 z m 8.841,-10.695 h 12.484 c 0.756,0 1.771,-0.139 2.3,-0.798 v 0 c 0.482,-0.6 0.394,-1.442 0.294,-1.892 v 0 c -0.372,-1.725 -1.955,-3.463 -4.652,-3.463 v 0 h -11.771 z m -3.672,-16.843 h 14.034 c 1.283,0 2.302,-0.386 2.863,-1.086 v 0 c 0.576,-0.713 0.536,-1.594 0.404,-2.211 v 0 c -0.492,-2.238 -2.881,-3.928 -5.566,-3.928 v 0 h -13.309 z m -64.24,27.532 -5.361,-24.584 c -1.412,-6.503 -6.353,-11.046 -12.008,-11.046 v 0 c -2.355,0 -4.246,0.801 -5.468,2.319 v 0 c -1.477,1.833 -1.888,4.678 -1.16,8.017 v 0 l 5.509,25.294 h -11.174 l -5.722,-26.259 c -1.184,-5.439 -0.175,-10.508 2.847,-14.257 v 0 c 3.02,-3.745 7.832,-5.805 13.561,-5.805 v 0 c 11.43,0 21.865,8.32 24.269,19.352 v 0 l 5.877,26.969 z" /></clipPath><linearGradient
       id="linearGradient146"
       spreadMethod="pad"
       gradientTransform="matrix(0,49.875503,49.875503,0,385.54541,389.3418)"
       gradientUnits="userSpaceOnUse"
       y2="0"
       x2="1"
       y1="0"
       x1="0"><stop
         id="stop142"
         offset="0"
         style="stop-opacity:1;stop-color:#0f2752" /><stop
         id="stop144"
         offset="1"
         style="stop-opacity:1;stop-color:#1a448c" /></linearGradient><clipPath
       id="clipPath156"
       clipPathUnits="userSpaceOnUse"><path
         id="path154"
         d="m 236.453,481.044 c -13.946,-3.414 -23.726,-12.418 -21.84,-20.114 v 0 c 1.879,-7.694 14.718,-11.159 28.665,-7.749 v 0 c 13.943,3.417 23.734,12.42 21.847,20.115 v 0 c -1.394,5.683 -8.763,9.062 -18.145,9.062 v 0 c -3.315,0 -6.884,-0.422 -10.527,-1.314" /></clipPath><linearGradient
       id="linearGradient166"
       spreadMethod="pad"
       gradientTransform="matrix(50.247284,-3.2729492,-3.2729492,-50.247284,214.74512,468.75049)"
       gradientUnits="userSpaceOnUse"
       y2="0"
       x2="1"
       y1="0"
       x1="0"><stop
         id="stop162"
         offset="0"
         style="stop-opacity:1;stop-color:#0f2752" /><stop
         id="stop164"
         offset="1"
         style="stop-opacity:1;stop-color:#1a448c" /></linearGradient></defs><g
     transform="matrix(1.3333333,0,0,-1.3333333,0,1122.52)"
     id="g10"><g
       id="g12"><g
         clip-path="url(#clipPath18)"
         id="g14"><g
           transform="translate(54.3203,446.7207)"
           id="g20"><path
             id="path22"
             style="fill:#ffffff;fill-opacity:1;fill-rule:evenodd;stroke:none"
             d="m 0,0 c -25.702,-25.702 -38.081,-56.501 -35.022,-83.466 2.038,-17.984 10.905,-33.113 25.639,-43.752 15.313,-11.056 35.922,-16.666 61.252,-16.666 7.742,0 15.983,0.545 24.492,1.613 l 3.37,0.481 -2.188,-9.969 h 67.021 l 3.459,15.936 31.903,-39.09 5.071,23.154 h 19.929 c 6.933,0 13.767,1.27 20.181,3.67 l -0.793,-3.67 h 61.88 l 7.078,11.322 h 1.543 l 2.144,-11.322 h 58.438 l 3.277,15.026 30.557,-38.219 5.506,25.369 c 5.615,-2.24 11.752,-3.418 18.105,-3.418 20.158,0 43.09,11.609 47.92,33.801 2.149,9.879 0.03,17.107 -2.658,21.887 l 15.789,11.828 c 0,0 -8.172,14.117 -19.285,22.172 l 14.59,66.996 h -99.713 l 5.959,27.41 -46.35,-38.405 -7.398,9.596 c 1.715,1.309 3.414,2.644 5.09,4.013 18.31,14.96 25.56,34.335 29.685,44.585 0,0 -28.5,-20.334 -42.89,-23.82 13.267,15.941 25.64,43.82 11.349,76.603 0,0 -4.709,-25.283 -23.941,-41.978 0.242,4.323 -0.096,8.548 -1.033,12.601 -2.956,12.751 -20.09,35.157 -51.733,39.332 0,0 17.672,-15.083 17.172,-29.155 -13.603,13.612 -51.352,26.541 -100.791,16.409 23.557,-0.937 35.31,-7.835 35.31,-7.835 -3.64,0.304 -7.587,0.476 -11.875,0.476 -32.328,0 -82.868,-11.859 -104.842,-24.164 17.579,2.418 29.83,2.013 39.992,1.098 C 96.688,61.616 37.818,37.819 0,0" /></g></g></g><g
       id="g24"><g
         clip-path="url(#clipPath30)"
         id="g26"><g
           id="g32"><g
             id="g34"><path
               id="path42"
               style="fill:url(#linearGradient40);stroke:none"
               d="m 321.735,510.47 c -3.235,6.478 -10.538,29.238 -66.452,32.639 v 0 c 14.024,-2.646 26.541,-8.991 28.76,-20.971 v 0 c -13.292,5.683 -37.105,14.707 -98.668,0.488 v 0 c 17.684,2.558 36.928,2.314 50.563,-4.457 v 0 c -24.543,0.24 -53.555,-2.1 -109.88,-31.717 v 0 c 18.307,7.801 40.68,14.078 62.651,14.194 v 0 C 162.921,493.442 129.316,481.04 91.076,439.577 v 0 c 14.755,12.627 35.662,25.406 61.732,33.545 v 0 c -15.537,-10.149 -51.72,-35.983 -55.212,-80.965 v 0 c 5.105,15.335 17.733,33.059 41.192,49.161 v 0 c -2.641,-5.106 -25.503,-46.191 19.58,-78.415 v 0 c -10.416,12.769 -14.047,30.49 -2.714,51.483 v 0 c 1.936,-7.912 14.037,-30.7 65.481,-39.701 v 0 l 0.906,3.974 h 8.797 c -18.801,7.453 -37.567,19.578 -36.946,29.489 v 0 c 27.496,-20.143 69.967,-10.601 69.967,-10.601 v 0 l 3.292,15.305 c -8.737,0.802 -15.592,2.027 -17.892,3.74 v 0 c 5.37,-0.45 11.708,-0.374 18.737,0.277 v 0 l 5.98,26.793 18.55,-23.36 26.16,20.984 -0.939,-5.305 17.486,-0.017 c 13.68,6.479 27.217,14.687 39.562,24.813 v 0 c 0.348,0.281 12.238,10.752 17.604,16.479 v 0 c -15.393,-11.714 -38.877,-23.073 -68.606,-28.24 v 0 l 0.746,2.063 c 16.014,8.54 54.325,36.606 51.862,71.438 v 0 c -3.264,-11.686 -14.951,-26.104 -40.047,-38.786 v 0 c 2.67,4.167 25.055,37.801 -12.504,60.514 v 0 c 7.235,-7.648 9.377,-19.207 -2.115,-33.775" /></g></g></g></g><g
       id="g44"><g
         clip-path="url(#clipPath50)"
         id="g46"><g
           transform="translate(151.3076,330.8311)"
           id="g52"><path
             id="path54"
             style="fill:#007b5d;fill-opacity:1;fill-rule:nonzero;stroke:none"
             d="M 0,0 C -96.772,-4.52 -115.022,83.163 -20.516,129.093 -101.763,65.459 -60.468,1.824 0.156,0.479 Z" /></g><g
           transform="translate(171.2686,497.3037)"
           id="g56"><path
             id="path58"
             style="fill:#f68624;fill-opacity:1;fill-rule:nonzero;stroke:none"
             d="m 0,0 c -63.964,-17.924 -178.556,-116.126 -95.655,-171.473 12.289,-7.689 32.436,-14.146 53.822,-11.459 C -192.991,-201.924 -169.512,-38.959 0,0" /></g></g></g><g
       id="g60"><g
         clip-path="url(#clipPath66)"
         id="g62"><g
           id="g68"><g
             id="g70"><path
               id="path84"
               style="fill:url(#radialGradient82);stroke:none"
               d="m 296.167,505.572 c 0.949,-3.88 -0.89,-10.454 -5.321,-18.083 v 0 c 7.834,20.894 -9.475,39.027 -56.797,37.791 v 0 c 12.492,-1.056 24.459,-5.01 29.074,-13.849 v 0 c 4.532,-2.082 8.805,-6.64 11.51,-12.657 v 0 c -11.625,15.123 -46.093,21.106 -95.569,5.606 v 0 c 14.775,3.324 31.486,4.593 44.882,0.496 v 0 c 6.712,0.12 15.465,-1.379 23.926,-4.252 v 0 c -26.415,5.76 -69.582,-1.507 -110.885,-28.754 v 0 c 14.009,7.5 31.975,14.154 51.126,16.07 v 0 c 7.251,2.322 18.177,4.272 29.987,5.241 v 0 c -34.413,-5.167 -76.622,-25.13 -98.012,-59.309 v 0 c 9.262,10.67 23.958,22.066 44.496,30.474 v 0 c 6.016,4.18 16.544,9.383 28.855,14.158 v 0 c -33.95,-15.646 -63.66,-45.321 -53.262,-77.433 v 0 c -0.094,11.203 5.664,25.001 21.351,38.835 v 0 c 2.72,5.102 9.598,12.544 18.836,20.246 v 0 c -23.308,-23.242 -27.58,-55.318 18.676,-72.066 v 0 c -11.822,7.332 -19.548,18.9 -15.687,34.521 v 0 c -2.134,4.445 -1.863,12.059 0.824,20.683 v 0 c -2.708,-22.863 21.823,-44.235 79.69,-39.954 v 0 l -3.892,-17.86 h 20.874 l 3.78,17.374 0.086,-0.112 4.057,-5.433 3.846,3.237 0.371,0.319 -3.36,-15.385 h 20.881 l 1.852,8.516 c 0.398,-0.634 0.828,-1.238 1.294,-1.82 v 0 c 3.934,-4.881 10.058,-7.567 17.247,-7.567 v 0 c 7.086,0 14.031,2.739 19.41,7.38 v 0 l -1.428,-6.509 h 20.883 l 3.781,17.379 0.086,-0.117 4.051,-5.433 3.849,3.237 0.372,0.314 -3.355,-15.38 h 14.495 l -11.814,-54.208 -10.01,48.647 h -37.535 l 9.66,-17.043 -20.308,-31.013 10.472,48.054 h -26.154 l -3.865,-17.705 c -0.995,2.196 -2.259,4.244 -3.756,6.105 v 0 c -4.258,5.297 -12.456,11.602 -27.354,11.602 v 0 h -50.955 l -6.024,-27.668 -32.119,38.198 -2.295,-10.532 h -19.565 l -17.128,-74.951 h 46.522 l 6.026,27.668 32.118,-38.198 2.3,10.53 h 27.983 c 13.353,0 26.193,5.783 35.112,15.326 v 0 l -3.332,-15.326 h 43.947 l 7.08,11.322 h 15.368 l 2.142,-11.322 h 42.098 l 6.031,27.668 30.543,-38.201 4.037,18.517 c 6.504,-5.91 15.344,-9.227 24.891,-9.227 v 0 c 16.15,0 34.443,8.903 38.148,25.927 v 0 c 1.403,6.456 0.568,11.926 -2.495,16.267 v 0 c -1.365,1.938 -3.087,3.555 -5.204,4.889 v 0 l 16.514,12.382 -4.512,5.889 c -6.145,8.019 -15.506,12.087 -27.811,12.087 v 0 c -10.152,0 -19.804,-3.429 -26.656,-9.15 v 0 l 1.721,7.905 h -26.169 l -6.022,-27.668 -26.575,33.229 h 27.019 c 1.003,0 1.993,0.063 2.966,0.183 v 0 l -0.122,-0.183 h 23.704 l 4.935,7.919 h 9.01 l 1.492,-7.919 h 32.039 l 11.97,54.927 h -20.874 l -6.637,-30.459 -6.266,30.459 h -29.431 l 7.434,-13.132 -9.309,-14.212 c -0.188,0.398 -0.395,0.787 -0.621,1.164 v 0 c 1.591,2.106 2.721,4.548 3.285,7.152 v 0 c 1.425,6.532 -0.645,10.847 -2.631,13.321 v 0 c -2.965,3.682 -7.688,5.707 -13.303,5.707 v 0 h -21.367 l 0.982,4.514 1.459,6.711 -32.016,-26.524 -18.941,24.559 -2.013,-9.26 h -14.801 l -6.17,-28.321 c -0.942,-4.303 -3.976,-7.312 -7.381,-7.312 v 0 c -0.886,0 -1.484,0.181 -1.785,0.555 v 0 c -0.432,0.538 -0.666,1.99 -0.217,4.039 v 0 l 6.756,31.039 h -14.791 l 2.449,11.219 -19.3,-15.98 c -6.45,-0.965 -13.073,-1.493 -19.731,-1.453 v 0 l -4.614,5.98 c 29.372,7.068 58.923,22.758 75.632,47.095 v 0 c -10.086,-9.928 -27.19,-20.325 -51.227,-26.228 v 0 c -7.475,-3.891 -20.237,-8.114 -34.825,-11.381 v 0 c 40.7,12.112 75.427,39.777 65.762,68.563 v 0 c -0.327,-8.678 -9.662,-24.781 -23.508,-30.754 v 0 c -3.509,-4.705 -11.804,-11.378 -22.931,-18.215 v 0 c 27.754,20.491 34.984,47.222 0.486,61.535 v 0 c 7.465,-5.263 11.602,-13.698 5.497,-25.212 m -24.716,-67.45 -0.408,-1.879 -0.322,-1.478 c -8.783,-0.992 -20.444,-0.564 -32.093,1.287 v 0 c 2.446,-0.156 4.953,-0.233 7.509,-0.233 v 0 c 8.063,0 16.617,0.771 25.314,2.303 M 225.629,420.19 c -6.832,2.008 -14.232,7.012 -19.973,13.637 v 0 C 217.93,424.184 240.312,419.038 267.937,422 v 0 l -3.679,-16.871 c -15.272,1.409 -29.562,5.935 -38.629,15.061 m 253.395,-64.263 c -0.842,0.105 -2.515,0.322 -4.156,0.582 v 0 c 1.078,0.33 2.496,0.561 4.308,0.561 v 0 c 2.969,0 4.981,-0.591 6.877,-2.194 v 0 c -2.387,0.443 -4.781,0.758 -7.029,1.051 m -217.323,-1.251 h 8.383 c 3.937,0 6.891,-1.083 8.533,-3.123 v 0 c 1.465,-1.814 1.902,-4.5 1.242,-7.55 v 0 c -1.747,-7.994 -9.447,-13.795 -18.308,-13.795 v 0 h -5.184 z m 186.678,-13.698 c 1.01,-1.386 2.174,-2.557 3.45,-3.557 v 0 l -0.446,-0.332 -1.924,-1.448 -2.681,-2.021 z m 12.094,-7.739 c 3.726,-1.078 7.702,-1.63 11.463,-2.148 v 0 c 1.008,-0.139 3.182,-0.437 5.086,-0.791 v 0 c -1.535,-0.731 -3.9,-1.309 -7.073,-1.344 v 0 c -3.779,0 -7.11,1.511 -9.476,4.283" /></g></g></g></g><g
       id="g86"><g
         clip-path="url(#clipPath92)"
         id="g88"><g
           transform="translate(436.979,299.792)"
           id="g94"><path
             id="path96"
             style="fill:#ffffff;fill-opacity:1;fill-rule:nonzero;stroke:none"
             d="M 0,0 -30.539,38.201 -37.227,7.539 h -38.226 l -2.141,11.326 H -96.24 l -7.078,-11.326 h -39.698 l 5.118,23.506 C -145.455,17.117 -160.973,7.539 -177.733,7.539 h -29.891 L -209.272,0 -241.388,38.201 -248.069,7.539 h -41.673 l 16.097,70.214 h 19.565 l 1.641,7.537 32.117,-38.196 6.683,30.659 h 49.043 c 13.957,0 21.575,-5.825 25.508,-10.716 3.334,-4.139 5.309,-9.152 5.838,-14.658 l 5.535,25.374 h 21.307 l -12.578,-57.712 28.127,42.947 -8.366,14.765 h 31.543 l 11.871,-57.702 14.219,65.239 30.543,-38.2 6.676,30.663 h 21.32 L 13.924,63.879 c 5.597,8.967 17.597,15.122 30.9,15.122 11.533,0 20.256,-3.754 25.93,-11.159 l 1.455,-1.903 1.602,-2.087 -2.104,-1.581 -1.916,-1.437 -9.861,-7.387 -1.838,-1.379 -1.901,-1.425 c 3.059,-1.278 5.754,-3.116 7.709,-5.887 2.666,-3.774 3.375,-8.615 2.118,-14.395 -3.44,-15.8 -20.631,-24.07 -35.834,-24.07 -10.604,0 -20.065,4.246 -26.262,11.713 z m 32.658,55.572 c 1.594,-0.828 6.397,-1.445 9.088,-1.793 4.711,-0.605 9.791,-1.259 14.162,-3.021 l -1.418,1.767 -1.431,1.789 c -3.108,3.887 -6.057,5.336 -10.862,5.336 -6.74,0 -9.121,-2.855 -9.539,-4.078 m -216.21,-27.529 h 8.124 c 9.965,0 18.638,6.586 20.617,15.664 0.822,3.766 0.219,7.158 -1.703,9.541 -2.111,2.619 -5.701,4 -10.381,4 h -10.291 z m 201.503,8.953 1.557,-2.142 1.412,-1.958 c 2.848,-3.935 7.121,-6.103 12.051,-6.103 6.093,0.066 10.675,2.049 11.457,4.945 -1.565,0.86 -6.449,1.535 -9.176,1.914 -8.154,1.125 -17.377,2.397 -22.107,9.176 -1.284,1.826 -2.098,3.901 -2.457,6.203 l -4.561,-20.914 7.775,5.84 1.93,1.449 z" /></g></g></g><g
       id="g98"><g
         clip-path="url(#clipPath104)"
         id="g100"><g
           id="g106"><g
             id="g108"><path
               id="path116"
               style="fill:url(#linearGradient114);stroke:none"
               d="m 381.675,309.94 h 15.982 l 7.402,33.95 30.539,-38.2 15.096,69.25 h -15.987 l -7.398,-33.951 -30.539,38.192 z m -210.846,0 h 15.983 l 7.398,33.95 32.119,-38.2 15.089,69.25 h -15.981 l -7.402,-33.951 -32.114,38.192 z m 279.755,46.24 c -1.066,-4.892 -0.503,-8.955 1.672,-12.071 v 0 c 4.078,-5.839 12.706,-7.034 20.309,-8.082 v 0 c 4.695,-0.653 10.006,-1.382 11.253,-3.163 v 0 c 0.112,-0.17 0.419,-0.599 0.179,-1.723 v 0 c -0.952,-4.328 -6.34,-7.072 -14.048,-7.155 v 0 c -5.788,0 -10.814,2.542 -14.157,7.175 v 0 l -1.416,1.951 -1.928,-1.447 -10.098,-7.578 -1.873,-1.408 1.391,-1.887 c 5.646,-7.694 14.863,-12.106 25.295,-12.106 v 0 c 14.156,0 30.142,7.565 33.291,22.02 v 0 c 1.095,5.035 0.526,9.182 -1.697,12.343 v 0 c -4.126,5.844 -12.753,6.957 -20.364,7.938 v 0 c -4.666,0.602 -9.939,1.284 -11.178,3.04 v 0 c -0.111,0.157 -0.416,0.587 -0.172,1.726 v 0 c 0.479,2.176 3.622,6.291 12.133,6.291 v 0 c 5.577,0 9.311,-1.828 12.899,-6.309 v 0 l 1.431,-1.788 1.84,1.37 9.862,7.399 1.913,1.431 -1.451,1.905 c -5.16,6.723 -13.193,10.136 -23.867,10.136 v 0 c -15.318,0 -28.734,-8.601 -31.219,-20.008 m -108.361,18.76 6.947,-12.262 -34.541,-52.738 h 17.588 l 7.079,11.32 h 22.249 l 2.141,-11.32 h 16.859 l -13.368,65 z m 14.281,-26.134 2.393,-12.824 h -10.428 z m -45.148,26.134 -14.164,-65 h 15.98 l 14.166,65 z m -66.311,0 -14.166,-65 h 28.367 c 19.529,0 37.253,13.752 41.225,31.992 v 0 c 1.945,8.903 0.304,17.164 -4.61,23.262 v 0 c -3.577,4.451 -10.558,9.746 -23.478,9.746 v 0 z m 12.647,-15.295 h 12.392 c 5.498,0 9.787,-1.719 12.41,-4.974 v 0 c 2.426,-3.01 3.211,-7.176 2.221,-11.731 v 0 c -2.24,-10.261 -11.981,-17.709 -23.164,-17.709 v 0 h -11.356 z m -92.26,15.295 -14.955,-65 h 16.765 l 14.168,65 z" /></g></g></g></g><g
       id="g118"><g
         clip-path="url(#clipPath124)"
         id="g120"><g
           transform="translate(419.3892,421.1924)"
           id="g126"><path
             id="path128"
             style="fill:#ffffff;fill-opacity:1;fill-rule:nonzero;stroke:none"
             d="m 0,0 h 8.828 c 1.346,0 2.053,0.719 2.289,1.408 -0.068,0 -0.144,0.006 -0.228,0.006 H 0.311 Z M -3.9,-17.919 H 6.467 c 1.543,0 3.002,0.93 3.25,2.071 0.021,0.107 0.031,0.19 0.029,0.24 -0.111,0.06 -0.426,0.178 -0.98,0.178 H -3.363 Z m -84.584,-16.303 c -6.455,0 -11.928,2.373 -15.405,6.69 -2.035,2.531 -3.289,5.56 -3.703,8.871 l -3.199,-14.688 h -16.027 l 4.214,19.325 -7.623,-6.43 -5.738,7.687 -4.487,-20.582 h -16.021 l 12.277,56.34 17.333,-22.468 28.619,23.706 -1.611,-7.387 h 14.796 l -6.134,-28.169 c -0.561,-2.582 -0.313,-4.785 0.691,-6.024 0.768,-0.959 1.988,-1.439 3.627,-1.439 4.531,0 8.518,3.775 9.695,9.176 l 5.762,26.456 h 14.803 l 1.336,6.152 17.336,-22.471 28.617,23.709 -1.612,-7.39 h 1.354 22.959 c 4.881,0 8.949,-1.713 11.453,-4.822 1.666,-2.071 3.391,-5.715 2.164,-11.332 -0.617,-2.85 -1.994,-5.444 -3.961,-7.525 1.619,-1.955 2.52,-4.396 2.623,-7.131 l 13.073,19.958 -2.748,4.845 -1.397,2.472 -2,3.535 h 23.441 l 8.129,-39.525 8.608,39.525 H 88.787 L 77.85,-33.349 H 49.68 l -1.489,7.92 H 35.906 l -4.945,-7.92 H 12.959 l 1.145,1.746 c -2.549,-1.13 -5.387,-1.746 -8.372,-1.746 h -40.689 -2.936 l 4.213,19.332 -7.623,-6.437 -5.746,7.687 -4.48,-20.582 h -16.028 l 2.856,13.092 c -4.746,-8.308 -13.924,-13.965 -23.783,-13.965" /></g></g></g><g
       id="g130"><g
         clip-path="url(#clipPath136)"
         id="g132"><g
           id="g138"><g
             id="g140"><path
               id="path148"
               style="fill:url(#linearGradient146);stroke:none"
               d="m 381.069,418.329 -15.725,20.381 -10.572,-48.499 h 11.176 l 5.185,23.791 7.346,-9.839 11.029,9.325 -5.076,-23.277 h 11.178 l 10.68,49.007 z m -88.922,0 -15.723,20.381 -10.567,-48.499 h 11.174 l 5.182,23.791 7.348,-9.839 11.027,9.325 -5.072,-23.277 h 11.17 l 10.685,49.007 z m 201.913,17.34 -9.903,-45.458 h 11.17 l 9.906,45.458 z m -38.03,0 4.855,-8.578 -24.154,-36.88 h 12.304 l 4.947,7.918 h 15.56 l 1.496,-7.918 h 11.789 l -9.346,45.458 z m 9.988,-18.281 1.674,-8.964 h -7.295 z m -57.066,18.281 -9.913,-45.458 h 26.082 c 8.409,0 15.496,5.562 17.231,13.519 v 0 c 1,4.583 -0.267,8.384 -3.426,10.68 v 0 c 2.586,1.904 4.436,4.728 5.143,7.973 v 0 c 1.027,4.708 -0.357,7.677 -1.694,9.343 v 0 c -2.05,2.543 -5.463,3.943 -9.613,3.943 v 0 z m 8.841,-10.695 h 12.484 c 0.756,0 1.771,-0.139 2.3,-0.798 v 0 c 0.482,-0.6 0.394,-1.442 0.294,-1.892 v 0 c -0.372,-1.725 -1.955,-3.463 -4.652,-3.463 v 0 h -11.771 z m -3.672,-16.843 h 14.034 c 1.283,0 2.302,-0.386 2.863,-1.086 v 0 c 0.576,-0.713 0.536,-1.594 0.404,-2.211 v 0 c -0.492,-2.238 -2.881,-3.928 -5.566,-3.928 v 0 h -13.309 z m -64.24,27.532 -5.361,-24.584 c -1.412,-6.503 -6.353,-11.046 -12.008,-11.046 v 0 c -2.355,0 -4.246,0.801 -5.468,2.319 v 0 c -1.477,1.833 -1.888,4.678 -1.16,8.017 v 0 l 5.509,25.294 h -11.174 l -5.722,-26.259 c -1.184,-5.439 -0.175,-10.508 2.847,-14.257 v 0 c 3.02,-3.745 7.832,-5.805 13.561,-5.805 v 0 c 11.43,0 21.865,8.32 24.269,19.352 v 0 l 5.877,26.969 z" /></g></g></g></g><g
       id="g150"><g
         clip-path="url(#clipPath156)"
         id="g152"><g
           id="g158"><g
             id="g160"><path
               id="path168"
               style="fill:url(#linearGradient166);stroke:none"
               d="m 236.453,481.044 c -13.946,-3.414 -23.726,-12.418 -21.84,-20.114 v 0 c 1.879,-7.694 14.718,-11.159 28.665,-7.749 v 0 c 13.943,3.417 23.734,12.42 21.847,20.115 v 0 c -1.394,5.683 -8.763,9.062 -18.145,9.062 v 0 c -3.315,0 -6.884,-0.422 -10.527,-1.314" /></g></g><g
           transform="translate(213.458,458.6611)"
           id="g170"><path
             id="path172"
             style="fill:#ffffff;fill-opacity:1;fill-rule:nonzero;stroke:none"
             d="M 0,0 C -1.882,7.691 7.894,16.701 21.846,20.113 35.794,23.527 48.628,20.061 50.511,12.365 52.399,4.67 42.62,-4.334 28.671,-7.748 14.722,-11.168 1.89,-7.695 0,0" /></g></g></g></g></svg>